<?xml version="1.0" encoding="UTF-8" standalone="no"?>
<svg width="108px" height="60px" viewBox="0 0 108 60" version="1.1" xmlns="http://www.w3.org/2000/svg" xmlns:xlink="http://www.w3.org/1999/xlink">
    <!-- Generator: Sketch 3.6.1 (26313) - http://www.bohemiancoding.com/sketch -->
    <title>Vizix_Blue_Red_Logo Copy + Group 3 Copy + Group Copy + Platform Copy 2 + by + Group 3 Copy Copy + Group Copy 6 Copy</title>
    <desc>Created with Sketch.</desc>
    <defs></defs>
    <g id="iconos" stroke="none" stroke-width="1" fill="none" fill-rule="evenodd">
        <g id="vizix" transform="translate(0.000000, -6.000000)">
            <g id="Vizix_Blue_Red_Logo-Copy-+-Group-3-Copy-+-Group-Copy-+-Platform-Copy-2-+-by-+-Group-3-Copy-Copy-+-Group-Copy-6-Copy-Copy-Copy-Copy-Copy" transform="translate(0.000000, 6.000000)">
                <g id="Vizix_Blue_Red_Logo-Copy-+-Group-3-Copy-+-Group-Copy-+-Platform-Copy-2-+-by-+-Group-3-Copy-Copy-+-Group-Copy-6-Copy" transform="translate(0.000000, 0.000000)">
                    <g id="Vizix_Blue_Red_Logo-Copy-+-Group-3-Copy-+-Group-Copy-+-Platform-Copy-2-+-by-+-Group-3-Copy-Copy">
                        <g id="Vizix_Blue_Red_Logo-Copy-+-Group-3-Copy-+-Group-Copy">
                            <g id="Vizix_Blue_Red_Logo-Copy" transform="translate(5.385220, 2.496094)">
                                <g id="Page-1">
                                    <g id="Vizix_Blue_Red_Logo">
                                        <g id="Group-11">
                                            <g id="mask-2"></g>
                                            <g id="Fill-9-Clipped"></g>
                                        </g>
                                    </g>
                                </g>
                            </g>
                            <g id="Group-3-Copy-+-Group-Copy">
                                <g id="Group-3-Copy">
                                    <path d="M45.7987411,0 C21.9264626,0 2.28813537,9.63201726 0,21.9537299 C3.4772451,11.3585109 20.8634706,3.30759838 41.8170252,3.30759838 C65.2569002,3.30759838 84.264639,13.3939561 84.264639,25.8610577 C84.264639,38.3281592 65.2388834,48.3781697 41.7990084,48.3781697 C39.709058,48.3781697 37.6551412,48.2873016 35.637258,48.1419127 C38.8983014,48.5235586 42.3034792,48.741642 45.7807243,48.741642 C71.2024488,48.741642 91.813684,37.8374716 91.813684,24.370821 C91.813684,10.9041705 71.2024488,0 45.7987411,0 L45.7987411,0 Z" id="Shape" fill="#CF292A"></path>
                                    <path d="M93.0928778,32.0946084 C89.6156327,42.6898274 72.2294072,50.74074 51.2758526,50.74074 C27.8359776,50.74074 8.82823885,40.6543823 8.82823885,28.1872807 C8.82823885,15.7201791 27.8359776,5.63382141 51.2758526,5.63382141 C53.365803,5.63382141 55.4197198,5.70651588 57.4376029,5.87007844 C54.1765596,5.48843247 50.7713818,5.27034906 47.2941367,5.27034906 C21.8724122,5.27034906 1.26117698,16.1745195 1.26117698,29.6411701 C1.26117698,43.1078206 21.8724122,54.0301647 47.2941367,54.0301647 C71.1664152,54.0301647 90.7867256,44.4163211 93.0928778,32.0946084 Z" id="Shape" fill="#FFFFFF"></path>
                                </g>
                            </g>
                        </g>
                        <text id="IoT-Visualization" font-family="OpenSans, Open Sans" font-size="4.43793393" font-weight="normal" line-spacing="16.5433333" letter-spacing="0.387097662" fill="#FFFFFF">
                            <tspan x="32.8503708" y="36.7684741">IoT Visualization</tspan>
                        </text>
                        <g id="by-+-Group-3-Copy" transform="translate(62.378795, 51.777587)" fill="#FFFFFF">
                            <text id="by" font-family="HelveticaNeue-Medium, Helvetica Neue" font-size="6.08908754" font-weight="400">
                                <tspan x="0.077947402" y="6.08213747">by</tspan>
                            </text>
                            <g id="Group-3" transform="translate(8.954819, 0.995248)">
                                <g id="Group" transform="translate(0.113309, 0.413454)">
                                    <path d="M0.0522312478,0.173420413 L3.01896612,0.173420413 L4.15760733,3.2555423 L5.29624853,0.173420413 L8.25253715,0.173420413 L8.25253715,5.23314951 L6.40355098,5.23314951 L6.40355098,1.37260777 L4.98286104,5.23314951 L3.31146111,5.23314951 L1.89077117,1.37260777 L1.89077117,5.23314951 L0.0417849982,5.23314951 L0.0417849982,0.173420413 L0.0522312478,0.173420413 Z" id="Shape"></path>
                                    <path d="M9.89259834,2.70854456 C9.89259834,1.87752876 10.1746471,1.23585833 10.7491908,0.77301409 C11.3237345,0.310169848 12.1176495,0.0787477272 13.1413819,0.0787477272 C14.1860069,0.0787477272 15.0008144,0.310169848 15.5649118,0.762494903 C16.1290093,1.21481996 16.4110581,1.8459712 16.4110581,2.66646781 C16.4110581,3.2555423 16.2857031,3.73942491 16.0349931,4.11811566 C15.7842831,4.4968064 15.4291106,4.79134365 14.9590294,5.00172739 C14.4889481,5.21211114 13.9039582,5.31730301 13.2040594,5.31730301 C12.4937145,5.31730301 11.9087245,5.22263033 11.4386433,5.04380414 C10.968562,4.86497796 10.5924971,4.57044071 10.3104483,4.18123078 C10.0388458,3.79202085 9.89259834,3.29761905 9.89259834,2.70854456 L9.89259834,2.70854456 Z M11.846047,2.70854456 C11.846047,3.22398474 11.9609557,3.59215629 12.2012195,3.81305923 C12.4414832,4.03396216 12.7548707,4.14967322 13.1622744,4.14967322 C13.5801244,4.14967322 13.9039582,4.04448135 14.1337757,3.82357841 C14.3635931,3.60267548 14.4785019,3.21346555 14.4785019,2.64542943 C14.4785019,2.172066 14.3635931,1.82493282 14.1233294,1.60402989 C13.8830657,1.38312696 13.5592319,1.27793508 13.1518282,1.27793508 C12.7548707,1.27793508 12.4414832,1.39364614 12.2012195,1.61454908 C11.9609557,1.83545201 11.846047,2.19310438 11.846047,2.70854456 L11.846047,2.70854456 Z" id="Shape"></path>
                                    <path d="M20.7566979,0.173420413 L22.7623778,0.173420413 L22.7623778,2.92944749 C22.7623778,3.50800279 22.6997003,3.94980866 22.5638991,4.24434591 C22.4280978,4.54940234 22.1669416,4.80186283 21.7699841,5.01224658 C21.3730266,5.22263033 20.8716066,5.3278222 20.2448317,5.3278222 C19.5867179,5.3278222 19.085298,5.25418789 18.7301255,5.11743845 C18.374953,4.98068902 17.6855005,4.43369128 17.6855005,3.07671611 L19.4613629,3.07671611 C19.4613629,3.29761905 19.4927017,3.70786735 19.5344867,3.82357841 C19.5867179,3.92877029 19.6598417,4.02344297 19.7747504,4.0865581 C19.8478742,4.12863485 19.9627829,4.14967322 20.0985842,4.14967322 C20.3179554,4.14967322 20.4850954,4.0865581 20.5895579,3.94980866 C20.6940204,3.82357841 20.7462516,3.60267548 20.7462516,3.29761905 L20.7462516,0.173420413 L20.7566979,0.173420413 Z" id="Shape"></path>
                                    <path d="M24.9978752,0.173420413 L27.2020339,0.173420413 L27.2020339,5.23314951 L24.9978752,5.23314951 L24.9978752,0.173420413 L24.9978752,0.173420413 Z" id="Shape"></path>
                                    <path d="M28.4660301,0.173420413 L30.88956,0.173420413 L32.1535562,1.73026014 L33.3757674,0.173420413 L35.7784048,0.173420413 L33.5637998,2.62439106 L35.9873297,5.23314951 L33.5115686,5.23314951 L32.1013249,3.60267548 L30.6910812,5.23314951 L28.2362126,5.23314951 L30.6910812,2.5928335 L28.4660301,0.173420413 L28.4660301,0.173420413 Z" id="Shape"></path>
                                </g>
                            </g>
                        </g>
                    </g>
                    <g id="Group-Copy-6" transform="translate(17.053196, 22.578308)" fill="#FFFFFF">
                        <path d="M27.3312979,2.16592233 L22.4551622,2.16592233 L22.4551622,0.0158130782 L33.0066359,0.0158130782 L28.3472621,6.91863021 L32.9624013,6.91863021 L32.9624013,9.01040498 C32.9624013,9.01040498 22.5025435,9.01040498 22.468487,9.04484056 L27.3312979,2.16592233 Z" id="Fill-5-Copy"></path>
                        <path d="M3.86097437,9.06089382 L0.104727786,0.0158130782 L3.81100397,0.0158130782 L6.73412219,6.23858653 L9.42201188,0.0142802503 L13.2960469,0.0142802503 L9.38082454,9.06089382" id="Fill-3-Copy"></path>
                        <path d="M16.0265609,0.050780772 L19.906979,0.050780772 L19.906979,8.98519285 L16.0265609,8.98519285 L16.0265609,0.050780772 L16.0265609,0.050780772 Z" id="Shape-Copy"></path>
                        <path d="M35.7239515,0.0697450883 L39.6043696,0.0697450883 L39.6043696,9.00415717 L35.7239515,9.00415717 L35.7239515,0.0697450883 L35.7239515,0.0697450883 Z" id="Shape"></path>
                        <path d="M41.829633,0.0697450883 L46.0962538,0.0697450883 L48.3215172,2.81879496 L50.4732182,0.0697450883 L54.7030578,0.0697450883 L50.8042491,4.39764117 L55.0708699,9.00415717 L50.7122961,9.00415717 L48.2295642,6.12508467 L45.7468322,9.00415717 L41.4250397,9.00415717 L45.7468322,4.34191718 L41.829633,0.0697450883 L41.829633,0.0697450883 Z" id="Shape"></path>
                    </g>
                </g>
            </g>
        </g>
    </g>
</svg>